# xmcd CD database file
#
# Track frame offsets:
#	150
#	21651
#	54524
#
# Disc length: 1011 seconds
#
# Revision: 0
# Processed by: cddbd v1.5.2PL0 Copyright (c) Steve Scherf et al.
# Submitted via: CDex 1.70beta3
#
DISCID=2303f103
DTITLE=Unity-Gain - Swingin' Scat Street
DYEAR=2012
DGENRE=Jazz
TTITLE0=Swingin' Scat Street
TTITLE1=Diremption 2 Union
TTITLE2=亡き王女の為のセプテット Piano Solo
EXTD=YEAR: 2012
EXTT0=
EXTT1=
EXTT2=
PLAYORDER=
